<svg width="80" height="81" viewBox="0 0 80 81" fill="none" xmlns="http://www.w3.org/2000/svg">
<path d="M40.0403 6.81599C37.4733 2.99299 33.2663 0.61599 28.9803 0.61599C21.6303 0.61599 15.8743 6.44999 15.8743 13.904C15.8743 14.618 16.0243 15.618 16.3043 16.866C15.6273 16.726 14.3643 16.486 13.3213 16.486C5.87126 16.486 0.03125 22.213 0.03125 29.532C0.03125 33.838 2.43426 38.049 6.29626 40.622C2.39626 43.232 0.0602722 47.292 0.0602722 51.566C0.0602722 58.796 6.02626 64.674 13.3553 64.674C14.2553 64.674 15.3392 64.466 16.2852 64.257C16.0202 65.453 15.8753 66.461 15.8753 67.19C15.8753 74.64 21.6333 80.477 28.9823 80.477C33.3353 80.477 37.3983 78.207 39.9453 74.404C42.3953 78.044 46.7983 80.477 51.0173 80.477C58.3393 80.477 64.0673 74.643 64.0673 67.19C64.0673 66.222 63.8573 65.054 63.6873 64.257C64.9373 64.524 65.9332 64.674 66.6472 64.674C73.9752 64.674 79.9333 58.794 79.9333 51.566C79.9333 47.256 77.6132 43.066 73.8672 40.542C77.6122 38.02 79.9333 33.844 79.9333 29.525C79.9333 22.335 73.9463 16.478 66.5833 16.478C65.6633 16.478 64.5503 16.712 63.6793 16.901C63.8233 16.221 64.0663 14.935 64.0663 13.905C64.0663 6.45099 58.3383 0.61499 51.0163 0.61499C46.7523 0.61499 42.5963 2.99199 40.0383 6.81699L40.0403 6.81599ZM22.7982 20.126L22.7943 20.123C22.1563 19.521 20.0843 17.283 20.0793 13.753V13.735C20.0793 8.27199 24.6732 4.87999 28.9362 4.87099C31.3082 4.86799 33.5363 5.78799 35.2223 7.46499C36.9043 9.13899 37.8223 11.379 37.8253 13.772V34.368C37.8213 36.912 35.5653 38.325 33.9693 38.325H13.2812C10.9383 38.329 8.63425 37.378 6.94525 35.699C5.78825 34.546 4.40825 32.527 4.40225 29.477C4.40025 27.127 5.34925 24.827 7.01825 23.157C8.66025 21.513 10.8533 20.603 13.1983 20.601C16.3213 20.598 18.4212 22.054 19.6302 23.274C19.6302 23.274 20.4102 24.054 20.6732 24.302C20.4972 24.764 20.3233 25.364 20.3233 26.192C20.3233 29.142 22.7533 31.549 25.7383 31.562C27.1783 31.572 28.4612 31.046 29.4622 30.057C30.4782 29.043 31.0823 27.595 31.0823 26.179C31.0873 24.803 30.4643 23.324 29.4583 22.311C28.4633 21.323 27.1683 20.801 25.6963 20.806C24.8923 20.808 24.2162 21.042 23.8582 21.161C23.6732 20.984 22.7982 20.126 22.7982 20.126ZM42.1963 13.75C42.1883 11.41 43.1133 9.09999 44.7933 7.41199C45.9463 6.25499 47.9713 4.87199 51.0153 4.86899C53.3653 4.86599 55.6753 5.81899 57.3383 7.48399C58.9823 9.12699 59.8882 11.324 59.8932 13.67V13.684C59.8932 16.802 58.4453 18.894 57.2233 20.1C57.2233 20.105 56.4413 20.886 56.1893 21.14C55.7293 20.97 55.1292 20.796 54.3022 20.794C51.3562 20.792 48.9493 23.224 48.9383 26.21C48.9313 27.65 49.4483 28.93 50.4383 29.926C51.4483 30.942 52.8953 31.551 54.3143 31.556H54.3263C55.7013 31.556 57.1723 30.926 58.1823 29.918C59.1683 28.938 59.6823 27.645 59.6823 26.178V26.168C59.6823 25.366 59.4553 24.685 59.3323 24.332C59.5123 24.149 60.3723 23.266 60.3723 23.266C60.9763 22.626 63.2093 20.553 66.7343 20.546C72.2123 20.536 75.6112 25.138 75.6172 29.406C75.6202 31.776 74.6973 34.012 73.0233 35.696C71.3513 37.372 69.1133 38.319 66.7193 38.323H46.1283C43.5803 38.319 42.1943 36.029 42.1923 34.426V13.75H42.1963ZM6.99625 57.97C5.31125 56.294 4.34626 53.992 4.33926 51.662C4.33426 49.292 5.25626 47.056 6.93726 45.372C8.60926 43.692 10.8423 42.732 13.2373 42.725H33.8372C36.3852 42.731 37.8213 45.039 37.8253 46.635V67.315C37.8273 69.658 36.8483 71.965 35.1653 73.655C34.0093 74.812 31.9923 76.191 28.9453 76.193C24.0583 76.203 20.0723 72.253 20.0673 67.395V67.379C20.0673 64.269 21.5223 62.174 22.7393 60.961C22.7433 60.961 23.5193 60.181 23.7713 59.921C24.2373 60.093 24.8313 60.267 25.6583 60.271C28.6133 60.271 31.0143 57.843 31.0283 54.851C31.0283 53.416 30.5133 52.138 29.5283 51.139C28.5183 50.125 27.0683 49.515 25.6463 49.511C24.2763 49.511 22.7903 50.131 21.7803 51.141C20.7963 52.131 20.2722 53.424 20.2722 54.887V54.897C20.2722 55.699 20.5023 56.382 20.6323 56.729L19.5893 57.797C18.9913 58.439 16.7463 60.517 13.2213 60.517C10.8593 60.527 8.65125 59.617 6.99725 57.97H6.99625ZM44.8643 73.57C43.1843 71.9 42.1963 69.66 42.1943 67.267V46.67C42.1963 44.125 44.5383 42.73 46.1373 42.725H66.8073C71.0773 42.721 75.6873 46.082 75.6953 51.56C75.6993 56.446 71.7503 60.432 66.8873 60.438C63.7633 60.442 61.6672 58.99 60.4622 57.768C60.4582 57.765 59.6763 56.986 59.4253 56.73C59.5933 56.267 59.7682 55.673 59.7682 54.844V54.838C59.7682 51.892 57.3403 49.485 54.3513 49.476C52.9143 49.47 51.6362 49.991 50.6432 50.974C49.6292 51.984 49.0163 53.44 49.0083 54.859C49.0083 56.231 49.6383 57.714 50.6453 58.724C51.6323 59.712 52.9283 60.232 54.3993 60.226C55.2093 60.226 55.8833 59.999 56.2323 59.874L57.2963 60.911C57.9363 61.513 60.0113 63.749 60.0193 67.278V67.29C60.0193 72.76 55.4163 76.156 51.1513 76.162C48.7873 76.172 46.5483 75.246 44.8653 73.567L44.8643 73.57Z" fill="#E33131"/>
</svg>
