<svg width="753" height="753" viewBox="0 0 753 753" fill="none" xmlns="http://www.w3.org/2000/svg">
<path d="M462.312 297.434V351.565C462.312 355.308 459.268 358.351 455.525 358.351H435.24C433.765 358.351 432.324 358.829 431.146 359.718L414.947 371.864V365.178C414.947 361.408 411.891 358.351 408.12 358.351H391.228C387.485 358.351 384.441 355.308 384.441 351.565V297.434C384.441 293.69 387.485 290.647 391.228 290.647H455.525C459.268 290.647 462.312 293.69 462.312 297.434Z" fill="#E33131"/>
<path d="M475.958 297.434V351.565C475.958 362.835 466.794 371.998 455.524 371.998H437.514L412.212 390.971C411.014 391.88 409.573 392.338 408.119 392.338C407.082 392.338 406.039 392.102 405.069 391.617C402.76 390.459 401.299 388.103 401.299 385.517V371.998H391.227C379.956 371.998 370.793 362.835 370.793 351.565V297.434C370.793 286.17 379.956 277 391.227 277H455.524C466.794 277 475.958 286.17 475.958 297.434ZM462.31 351.565V297.434C462.31 293.69 459.267 290.647 455.524 290.647H391.227C387.483 290.647 384.44 293.69 384.44 297.434V351.565C384.44 355.308 387.483 358.351 391.227 358.351H408.119C411.889 358.351 414.946 361.408 414.946 365.178V371.864L431.145 359.718C432.323 358.829 433.764 358.351 435.238 358.351H455.524C459.267 358.351 462.31 355.308 462.31 351.565Z" fill="black"/>
<path d="M439.879 441.628C442.545 444.294 442.545 448.61 439.879 451.276L423.808 467.347C417.351 473.803 408.376 476.88 397.914 476.88C374.807 476.88 344.423 461.88 317.755 435.211C299.852 417.309 286.468 396.876 280.072 377.681C273.137 356.897 275.11 339.661 285.613 329.151L301.684 313.087C304.35 310.421 308.672 310.421 311.332 313.087L351.505 353.254C354.172 355.921 354.172 360.236 351.505 362.902L334.775 379.546C333.011 383.06 336.047 394.371 347.318 405.642C358.588 416.912 369.906 419.955 373.414 418.185L390.057 401.454C392.723 398.794 397.045 398.794 399.705 401.454L439.879 441.628Z" fill="black"/>
<path fill-rule="evenodd" clip-rule="evenodd" d="M377.04 58.6684C352.848 22.6457 313.205 0.24856 272.817 0.24856C203.55 0.24856 149.305 55.2284 149.305 125.475C149.305 132.204 150.719 141.628 153.358 153.389C146.977 152.07 135.075 149.808 125.246 149.808C55.0365 149.808 0 203.78 0 272.754C0 313.334 22.6461 353.019 59.0418 377.267C22.288 401.864 0.273507 440.125 0.273507 480.404C0.273507 548.539 56.4972 603.934 125.566 603.934C134.048 603.934 144.263 601.974 153.178 600.004C150.681 611.275 149.315 620.775 149.315 627.645C149.315 697.854 203.578 752.862 272.836 752.862C313.859 752.862 352.148 731.469 376.151 695.63C399.24 729.933 440.734 752.862 480.495 752.862C549.497 752.862 603.478 697.882 603.478 627.645C603.478 618.522 601.499 607.515 599.897 600.004C611.677 602.52 621.063 603.934 627.792 603.934C696.851 603.934 753 548.521 753 480.404C753 439.786 731.136 400.299 695.834 376.513C731.127 352.745 753 313.391 753 272.688C753 204.929 696.578 149.733 627.189 149.733C618.519 149.733 608.03 151.938 599.822 153.719C601.179 147.311 603.469 135.191 603.469 125.485C603.469 55.2379 549.488 0.239136 480.485 0.239136C440.308 0.239136 401.148 22.6323 377.04 58.6684ZM214.52 184.083L214.557 184.112C214.557 184.112 222.803 192.197 224.547 193.866C224.654 193.83 224.765 193.793 224.878 193.755C228.327 192.606 234.533 190.538 241.868 190.52C255.74 190.473 267.944 195.392 277.321 204.703C286.802 214.25 292.673 228.188 292.626 241.155C292.626 254.5 286.934 268.146 277.359 277.702C267.926 287.022 255.835 291.979 242.264 291.885C214.133 291.762 191.233 269.079 191.233 241.278C191.233 233.475 192.872 227.82 194.531 223.466C192.053 221.129 184.702 213.779 184.702 213.779C173.308 202.281 153.518 188.56 124.087 188.588C101.987 188.607 81.3201 197.183 65.8458 212.676C50.1171 228.414 41.1737 250.089 41.1925 272.236C41.2491 300.979 54.2542 320.006 65.1579 330.872C81.0751 346.695 102.788 355.657 124.869 355.62L124.454 397.086C101.884 397.152 80.8395 406.199 65.0825 422.031C49.2407 437.901 40.5518 458.973 40.5989 481.308C40.6649 503.266 49.7589 524.96 65.6384 540.755H65.6479C81.2353 556.277 102.044 564.852 124.303 564.758C157.523 564.758 178.68 545.175 184.316 539.125L194.145 529.06C192.92 525.79 190.752 519.353 190.752 511.795V511.701C190.752 497.913 195.69 485.728 204.964 476.398C214.482 466.88 228.486 461.037 241.397 461.037C254.798 461.075 268.463 466.823 277.981 476.379C287.264 485.794 292.117 497.838 292.117 511.362C291.985 539.558 269.358 562.44 241.51 562.44C233.716 562.402 228.119 560.762 223.727 559.141C221.352 561.592 214.039 568.942 214.001 568.942C202.532 580.374 188.82 600.117 188.82 629.426V629.577C188.867 675.359 226.432 712.584 272.487 712.489C301.202 712.471 320.21 699.475 331.104 688.571C346.965 672.645 356.191 650.903 356.172 628.823L397.346 628.37C397.365 650.922 406.676 672.032 422.508 687.77L422.518 687.742C438.378 703.565 459.479 712.292 481.757 712.197C521.951 712.141 565.33 680.137 565.33 628.587V628.474C565.254 595.217 545.699 574.144 539.668 568.471L529.641 558.698C526.352 559.876 520 562.016 512.367 562.016C498.504 562.072 486.29 557.172 476.989 547.861C467.499 538.342 461.562 524.367 461.562 511.437C461.637 498.064 467.414 484.343 476.97 474.824C486.328 465.561 498.372 460.651 511.914 460.707C540.083 460.792 562.964 483.476 562.964 511.239V511.296C562.964 519.108 561.315 524.706 559.732 529.069C562.097 531.482 569.467 538.823 569.504 538.851C580.86 550.368 600.613 564.051 630.054 564.014C675.883 563.957 713.099 526.393 713.061 480.347C712.985 428.722 669.541 397.048 629.3 397.086L628.471 355.601C651.032 355.563 672.123 346.639 687.88 330.844C703.656 314.974 712.354 293.902 712.326 271.567C712.269 231.345 680.237 187.975 628.612 188.07C595.392 188.136 574.348 207.672 568.656 213.703C568.656 213.703 560.552 222.025 558.855 223.749C560.015 227.076 562.154 233.494 562.154 241.052V241.146C562.154 254.971 557.31 267.156 548.018 276.392C538.499 285.891 524.637 291.828 511.679 291.828H511.566C498.193 291.781 484.556 286.042 475.038 276.467C465.708 267.081 460.836 255.018 460.902 241.448C461.005 213.307 483.689 190.388 511.452 190.407C519.246 190.426 524.901 192.066 529.236 193.668C530.067 192.83 531.51 191.384 533.035 189.855C535.866 187.018 538.98 183.897 538.98 183.867C550.496 172.501 564.142 152.786 564.142 123.402V123.27C564.095 101.161 555.557 80.4566 540.064 64.9729C524.392 49.2819 502.622 40.3007 480.476 40.329C451.789 40.3573 432.705 53.3907 421.839 64.2943C406.007 80.2021 397.289 101.972 397.365 124.024H397.327L356.172 124.231C356.144 101.68 347.493 80.5697 331.642 64.7938C315.753 48.9897 294.756 40.3196 272.402 40.3479C232.227 40.4327 188.933 72.399 188.933 123.883V124.052C188.98 157.319 208.507 178.41 214.52 184.083Z" fill="#E33131"/>
<circle cx="376.5" cy="617.5" r="53.5" fill="#E33131"/>
<circle cx="137.5" cy="372.5" r="53.5" fill="#E33131"/>
<circle cx="617.5" cy="381.5" r="53.5" fill="#E33131"/>
<circle cx="376.5" cy="132.5" r="53.5" fill="#E33131"/>
<path d="M392.28 322.04C392.28 320.2 392.733 318.533 393.64 317.04C394.547 315.547 395.787 314.36 397.36 313.48C398.933 312.6 400.693 312.16 402.64 312.16C404.8 312.16 406.653 312.68 408.2 313.72C409.773 314.76 410.987 316.253 411.84 318.2C412.693 320.12 413.12 322.453 413.12 325.2C413.12 328.64 412.667 331.547 411.76 333.92C410.88 336.293 409.613 338.093 407.96 339.32C406.307 340.547 404.36 341.16 402.12 341.16C400.333 341.16 398.68 340.773 397.16 340C395.64 339.227 394.36 338.12 393.32 336.68L396.4 333.32C397.04 334.307 397.867 335.08 398.88 335.64C399.92 336.227 401.027 336.52 402.2 336.52C403.4 336.52 404.427 336.2 405.28 335.56C406.16 334.92 406.84 334 407.32 332.8C407.827 331.573 408.093 330.107 408.12 328.4C407.773 329.013 407.293 329.56 406.68 330.04C406.093 330.52 405.413 330.893 404.64 331.16C403.893 331.4 403.067 331.52 402.16 331.52C400.32 331.52 398.64 331.107 397.12 330.28C395.627 329.427 394.44 328.293 393.56 326.88C392.707 325.44 392.28 323.827 392.28 322.04ZM402.64 316.68C401.707 316.68 400.84 316.933 400.04 317.44C399.24 317.92 398.6 318.56 398.12 319.36C397.64 320.16 397.4 321.053 397.4 322.04C397.4 323 397.627 323.88 398.08 324.68C398.56 325.453 399.2 326.08 400 326.56C400.8 327.013 401.68 327.24 402.64 327.24C403.6 327.24 404.467 327.013 405.24 326.56C406.04 326.08 406.68 325.453 407.16 324.68C407.64 323.88 407.88 323 407.88 322.04C407.88 321.08 407.64 320.2 407.16 319.4C406.68 318.573 406.04 317.92 405.24 317.44C404.44 316.933 403.573 316.68 402.64 316.68ZM433.355 330.16V335H417.115V330.16H422.795V318.04C422.555 318.36 422.181 318.693 421.675 319.04C421.168 319.36 420.595 319.667 419.955 319.96C419.315 320.253 418.675 320.493 418.035 320.68C417.395 320.867 416.821 320.96 416.315 320.96V315.96C416.795 315.96 417.368 315.813 418.035 315.52C418.728 315.2 419.408 314.827 420.075 314.4C420.768 313.973 421.355 313.56 421.835 313.16C422.341 312.733 422.661 312.4 422.795 312.16H428.275V330.16H433.355ZM453.12 330.16V335H436.88V330.16H442.56V318.04C442.32 318.36 441.947 318.693 441.44 319.04C440.934 319.36 440.36 319.667 439.72 319.96C439.08 320.253 438.44 320.493 437.8 320.68C437.16 320.867 436.587 320.96 436.08 320.96V315.96C436.56 315.96 437.134 315.813 437.8 315.52C438.494 315.2 439.174 314.827 439.84 314.4C440.534 313.973 441.12 313.56 441.6 313.16C442.107 312.733 442.427 312.4 442.56 312.16H448.04V330.16H453.12Z" fill="white"/>
</svg>
